<svg width="450" height="357" viewBox="0 0 450 357" fill="none" xmlns="http://www.w3.org/2000/svg">
<path d="M192.665 1.31897C187.476 3.95468 187.04 6.24141 187.301 29.8939L187.563 51.0806L190.465 53.6291C193.808 56.6184 198.643 57.0592 201.982 54.7724C205.94 51.9577 206.463 48.8811 206.463 27.9562C206.463 6.15416 205.935 3.78019 200.746 1.31897C197.146 -0.439701 196.182 -0.439701 192.665 1.31897Z" fill="#F03C02"/>
<path d="M135.602 39.3852C132.438 41.3184 130.505 45.9791 131.295 49.3219C131.649 50.5525 141.232 60.8382 153.189 72.7081C172.355 91.8744 174.729 93.9867 177.365 93.9867C183.256 93.9867 187.122 89.9413 187.122 83.701C187.122 80.6244 185.892 79.2193 167.166 60.3148C156.091 49.2393 146.067 39.6561 144.749 38.949C141.493 37.2776 138.858 37.3648 135.602 39.3852Z" fill="#F03C02"/>
<path d="M117.23 113.061C70.8986 116.932 30.541 144.272 11.2875 184.804C-1.72575 212.148 -3.57167 243.795 6.19056 273.339C16.1227 303.668 38.8936 329.607 68.1711 344.026C114.943 367.058 170.509 357.654 207.786 320.373C222.378 305.78 233.546 287.142 238.555 268.94C243.216 251.973 245.852 248.015 255.086 243.533C260.362 240.898 262.911 240.544 323.399 232.981C357.952 228.674 387.317 224.629 388.635 224.101C391.624 222.696 450 125.9 450 122.295C450 118.424 446.923 114.384 443.232 113.327C440.858 112.625 406.919 112.45 325.773 112.625L211.565 112.887L209.016 115.789L206.468 118.603V134.427V150.25H187.563H168.659V135.304C168.659 111.918 169.187 112.359 140.35 112.62C129.536 112.712 119.163 112.887 117.23 113.061Z" fill="#F03C02"/>
</svg>
