<svg width="435" height="51" viewBox="0 0 435 51" fill="none" xmlns="http://www.w3.org/2000/svg">
<g clip-path="url(#clip0_0_3)">
<path d="M32.6071 9.38888C24.8681 9.38938 18.5976 15.6617 18.5976 23.3983L18.5967 39.157L48.3659 9.38888H32.6071Z" fill="#F03C02"/>
<path d="M51.0946 29.5571C45.6224 24.0858 36.7519 24.0858 31.2817 29.5556L20.1384 40.6983L62.2369 40.6998L51.0946 29.5571Z" fill="#F03C02"/>
<path d="M8.71456 31.2947L16.5745 39.1541L16.5754 9.46053L8.71456 17.3214C4.85627 21.1807 4.85721 27.4369 8.71456 31.2947Z" fill="#F03C02"/>
<path d="M0 33.4802C0 37.4141 3.18877 40.6028 7.12113 40.6023L15.1331 40.6019L0.00094788 25.4698L0 33.4802Z" fill="#F03C02"/>
<path d="M98.702 39.6705C97.0713 39.6705 95.4405 39.2983 93.8097 38.5538V45.6264C93.8097 47.4699 93.4729 48.7639 92.7993 49.5084C92.1257 50.2529 90.9381 50.6251 89.2364 50.6251H86.0458L85.6735 50.2529V12.6031L86.0458 12.2309H88.226C90.2468 12.2309 91.7535 13.0994 92.7461 14.8366C94.7669 12.8158 97.2308 11.8054 100.138 11.8054C101.627 11.8054 102.939 12.1334 104.073 12.7892C105.207 13.4451 106.174 14.3757 106.971 15.5811C107.769 16.7864 108.372 18.2399 108.779 19.9416C109.187 21.6433 109.391 23.5577 109.391 25.6848C109.391 27.8119 109.116 29.744 108.566 31.4812C108.017 33.2183 107.264 34.6896 106.306 35.8949C105.349 37.1003 104.224 38.0309 102.93 38.6868C101.636 39.3426 100.226 39.6705 98.702 39.6705ZM97.6917 18.4527C96.2027 18.4527 94.9087 19.1617 93.8097 20.5798V32.2788C95.1569 33.0942 96.309 33.5019 97.2662 33.5019C99.677 33.5019 100.882 30.8253 100.882 25.4721C100.882 20.7925 99.8188 18.4527 97.6917 18.4527ZM124.653 33.0765H126.089C126.514 34.2464 126.727 35.4163 126.727 36.5862C126.727 37.7561 126.673 38.5184 126.567 38.8729C124.44 39.2274 122.543 39.4047 120.877 39.4047C118.466 39.4047 116.756 38.8108 115.745 37.6232C114.735 36.4356 114.23 34.5655 114.23 32.013V0.372243L114.549 0H117.793C119.459 0 120.629 0.372243 121.303 1.11673C121.976 1.86122 122.313 3.15521 122.313 4.9987V30.5772C122.313 32.2434 123.093 33.0765 124.653 33.0765ZM153.475 35.31C153.298 36.0545 152.961 36.8521 152.465 37.703C151.968 38.5538 151.454 39.1742 150.923 39.5642C148.441 39.4933 146.526 38.5538 145.179 36.7458C142.875 38.8729 140.376 39.9364 137.681 39.9364C136.299 39.9364 135.093 39.7149 134.065 39.2717C133.037 38.8286 132.169 38.2347 131.459 37.4903C130.75 36.7458 130.219 35.8861 129.864 34.9111C129.51 33.9362 129.332 32.917 129.332 31.8534C129.332 30.329 129.607 28.9907 130.157 27.8385C130.706 26.6863 131.459 25.7291 132.417 24.9669C133.374 24.2047 134.491 23.6286 135.767 23.2386C137.043 22.8487 138.408 22.6537 139.862 22.6537C140.677 22.6537 141.395 22.6626 142.015 22.6803C142.636 22.698 143.176 22.7246 143.637 22.76V21.7497C143.637 19.5162 142.485 18.3995 140.181 18.3995C138.692 18.3995 136.086 18.9667 132.364 20.1012C131.3 18.8603 130.626 16.9282 130.343 14.3048C131.194 13.9857 132.142 13.6844 133.188 13.4008C134.234 13.1172 135.306 12.869 136.405 12.6563C137.504 12.4436 138.585 12.2752 139.649 12.1511C140.712 12.027 141.67 11.965 142.52 11.965C143.761 11.965 144.958 12.1422 146.11 12.4968C147.262 12.8513 148.272 13.3919 149.141 14.1187C150.01 14.8454 150.701 15.7849 151.215 16.9371C151.729 18.0893 151.986 19.463 151.986 21.0584V31.8534C151.986 33.4842 152.482 34.6364 153.475 35.31ZM137.415 31.3216C137.415 32.9879 138.373 33.821 140.287 33.821C141.28 33.821 142.396 33.3069 143.637 32.2788V28.0246C142.928 27.9892 142.334 27.9626 141.856 27.9449C141.377 27.9271 141.014 27.9183 140.766 27.9183C138.532 27.9183 137.415 29.0527 137.415 31.3216ZM181.074 21.5901V32.4916C181.074 34.8314 181.5 36.5862 182.351 37.7561C181.003 38.9615 179.39 39.5642 177.511 39.5642C175.668 39.5642 174.409 39.1388 173.736 38.2879C173.062 37.4371 172.725 36.1431 172.725 34.406V23.0791C172.725 21.8738 172.566 20.9875 172.247 20.4202C171.928 19.853 171.307 19.5694 170.386 19.5694C169.854 19.5694 169.251 19.7112 168.578 19.9948C167.904 20.2784 167.213 20.7393 166.504 21.3774V39.1388C165.901 39.2451 165.245 39.3249 164.536 39.3781C163.827 39.4312 163.1 39.4578 162.356 39.4578C161.611 39.4578 160.884 39.4312 160.175 39.3781C159.466 39.3249 158.811 39.2451 158.208 39.1388V12.6031L158.58 12.2309H161.718C163.88 12.2309 165.334 13.2944 166.078 15.4215C168.56 13.2235 171.024 12.1245 173.47 12.1245C175.951 12.1245 177.839 12.9842 179.133 14.7036C180.427 16.423 181.074 18.7185 181.074 21.5901ZM200.537 24.3554V23.6641C200.537 21.6788 200.325 20.2341 199.899 19.3301C199.474 18.4261 198.676 17.9741 197.506 17.9741C196.265 17.9741 195.397 18.5856 194.9 19.8087C194.404 21.0318 194.156 23.0614 194.156 25.8975C194.156 27.3156 194.253 28.5032 194.448 29.4604C194.643 30.4176 194.927 31.1887 195.299 31.7737C195.672 32.3586 196.141 32.784 196.708 33.0499C197.276 33.3158 197.949 33.4488 198.729 33.4488C199.545 33.4488 200.449 33.2715 201.441 32.917C202.434 32.5625 203.498 31.9952 204.632 31.2153C204.951 31.3926 205.279 31.6496 205.616 31.9864C205.953 32.3232 206.263 32.7043 206.546 33.1297C206.83 33.5551 207.078 34.0071 207.291 34.4857C207.504 34.9643 207.663 35.4163 207.769 35.8418C206.6 37.0826 205.075 38.0752 203.196 38.8197C201.317 39.5642 199.403 39.9364 197.453 39.9364C193.66 39.9364 190.753 38.6956 188.732 36.214C186.711 33.7324 185.701 30.2049 185.701 25.6316C185.701 23.2918 186.029 21.2533 186.685 19.5162C187.34 17.7791 188.209 16.3433 189.29 15.2088C190.371 14.0744 191.612 13.2235 193.013 12.6563C194.413 12.0891 195.875 11.8054 197.4 11.8054C198.96 11.8054 200.387 12.0182 201.681 12.4436C202.975 12.869 204.091 13.4717 205.031 14.2516C205.97 15.0316 206.697 15.9622 207.211 17.0434C207.725 18.1247 207.982 19.3212 207.982 20.6329C207.982 22.1219 207.548 23.1677 206.679 23.7704C205.811 24.3731 204.738 24.6744 203.462 24.6744C202.399 24.6744 201.424 24.5681 200.537 24.3554ZM235.209 21.5901V32.4916C235.209 34.8668 235.652 36.6217 236.539 37.7561C235.191 38.9615 233.561 39.5642 231.646 39.5642C229.803 39.5642 228.544 39.1388 227.871 38.2879C227.197 37.4371 226.86 36.1431 226.86 34.406V23.0791C226.86 21.8738 226.701 20.9875 226.382 20.4202C226.063 19.853 225.442 19.5694 224.52 19.5694C223.989 19.5694 223.386 19.7112 222.712 19.9948C222.039 20.2784 221.347 20.7393 220.638 21.3774V39.1388C219.469 39.3515 218.121 39.4578 216.597 39.4578C215.073 39.4578 213.725 39.3515 212.555 39.1388V0.372243L212.928 0H216.118C217.82 0 218.999 0.372243 219.655 1.11673C220.311 1.86122 220.638 3.15521 220.638 4.9987V15.0493C223.014 13.0994 225.389 12.1245 227.764 12.1245C230.14 12.1245 231.974 12.9842 233.268 14.7036C234.562 16.423 235.209 18.7185 235.209 21.5901ZM262.117 28.5564H248.238C248.309 30.1517 248.716 31.3926 249.461 32.2788C250.205 33.1651 251.428 33.6083 253.13 33.6083C253.981 33.6083 254.965 33.4842 256.081 33.236C257.198 32.9879 258.483 32.5802 259.937 32.013C261.107 33.2183 261.833 34.8491 262.117 36.9053C259.281 38.9261 255.807 39.9364 251.694 39.9364C249.461 39.9364 247.591 39.5819 246.084 38.8729C244.577 38.1638 243.354 37.1712 242.415 35.8949C241.475 34.6187 240.811 33.112 240.421 31.3748C240.031 29.6377 239.836 27.741 239.836 25.6848C239.836 23.6995 240.075 21.8649 240.553 20.1809C241.032 18.497 241.759 17.0346 242.734 15.7938C243.709 14.553 244.95 13.578 246.456 12.869C247.963 12.16 249.727 11.8054 251.747 11.8054C253.449 11.8054 254.982 12.0891 256.347 12.6563C257.712 13.2235 258.873 14.0035 259.83 14.9961C260.788 15.9888 261.523 17.1764 262.037 18.559C262.551 19.9416 262.808 21.4483 262.808 23.0791C262.808 25.2417 262.578 27.0674 262.117 28.5564ZM248.184 22.8132H255.204V22.2283C255.204 20.9166 254.911 19.8353 254.326 18.9844C253.742 18.1336 252.864 17.7082 251.694 17.7082C250.56 17.7082 249.718 18.107 249.168 18.9047C248.619 19.7023 248.291 21.0052 248.184 22.8132ZM266.265 16.4319C266.442 15.7229 266.779 14.9341 267.275 14.0655C267.772 13.1969 268.268 12.5677 268.764 12.1777C272.026 12.4258 274.295 14.0389 275.571 17.0169C276.918 13.8262 279.134 12.2309 282.218 12.2309C283.14 12.2309 284.31 12.3727 285.728 12.6563C285.728 13.7553 285.542 15.0581 285.17 16.5648C284.797 18.0715 284.292 19.3567 283.654 20.4202C283.051 20.2075 282.147 20.0303 280.942 19.8885C279.169 19.8885 277.716 20.7925 276.581 22.6005V39.1388C275.411 39.3515 274.038 39.4578 272.46 39.4578C270.882 39.4578 269.491 39.3515 268.286 39.1388V21.9624C268.286 19.3035 267.612 17.46 266.265 16.4319ZM308.86 28.5564H294.981C295.052 30.1517 295.459 31.3926 296.204 32.2788C296.948 33.1651 298.172 33.6083 299.873 33.6083C300.724 33.6083 301.708 33.4842 302.825 33.236C303.941 32.9879 305.226 32.5802 306.68 32.013C307.85 33.2183 308.577 34.8491 308.86 36.9053C306.024 38.9261 302.55 39.9364 298.437 39.9364C296.204 39.9364 294.334 39.5819 292.827 38.8729C291.32 38.1638 290.097 37.1712 289.158 35.8949C288.218 34.6187 287.554 33.112 287.164 31.3748C286.774 29.6377 286.579 27.741 286.579 25.6848C286.579 23.6995 286.818 21.8649 287.297 20.1809C287.775 18.497 288.502 17.0346 289.477 15.7938C290.452 14.553 291.693 13.578 293.199 12.869C294.706 12.16 296.47 11.8054 298.491 11.8054C300.192 11.8054 301.726 12.0891 303.09 12.6563C304.455 13.2235 305.616 14.0035 306.574 14.9961C307.531 15.9888 308.266 17.1764 308.78 18.559C309.295 19.9416 309.552 21.4483 309.552 23.0791C309.552 25.2417 309.321 27.0674 308.86 28.5564ZM294.928 22.8132H301.947V22.2283C301.947 20.9166 301.655 19.8353 301.07 18.9844C300.485 18.1336 299.607 17.7082 298.437 17.7082C297.303 17.7082 296.461 18.107 295.911 18.9047C295.362 19.7023 295.034 21.0052 294.928 22.8132ZM328.642 12.6031C329.564 12.3904 330.699 12.284 332.046 12.284C333.393 12.284 334.705 12.479 335.981 12.869L336.194 13.4008L328.695 24.9935L337.098 37.7561C335.254 38.997 333.428 39.6174 331.62 39.6174C329.67 39.6174 328.164 38.7842 327.1 37.118L323.644 31.8534L319.389 39.1388C318.716 39.3515 317.555 39.4578 315.906 39.4578C314.258 39.4578 312.884 39.2451 311.785 38.8197L311.519 38.3411L319.655 25.6316L312.104 13.8794C313.806 12.674 315.685 12.0713 317.741 12.0713C318.734 12.0713 319.531 12.2752 320.134 12.6829C320.737 13.0906 321.339 13.7553 321.942 14.677L324.76 19.0376L328.642 12.6031ZM353.21 39.6705C351.58 39.6705 349.949 39.2983 348.318 38.5538V45.6264C348.318 47.4699 347.981 48.7639 347.308 49.5084C346.634 50.2529 345.446 50.6251 343.745 50.6251H340.554L340.182 50.2529V12.6031L340.554 12.2309H342.734C344.755 12.2309 346.262 13.0994 347.255 14.8366C349.275 12.8158 351.739 11.8054 354.646 11.8054C356.135 11.8054 357.447 12.1334 358.581 12.7892C359.716 13.4451 360.682 14.3757 361.48 15.5811C362.277 16.7864 362.88 18.2399 363.288 19.9416C363.695 21.6433 363.899 23.5577 363.899 25.6848C363.899 27.8119 363.624 29.744 363.075 31.4812C362.525 33.2183 361.772 34.6896 360.815 35.8949C359.858 37.1003 358.732 38.0309 357.438 38.6868C356.144 39.3426 354.735 39.6705 353.21 39.6705ZM352.2 18.4527C350.711 18.4527 349.417 19.1617 348.318 20.5798V32.2788C349.665 33.0942 350.817 33.5019 351.775 33.5019C354.185 33.5019 355.391 30.8253 355.391 25.4721C355.391 20.7925 354.327 18.4527 352.2 18.4527ZM389.478 28.5564H375.598C375.669 30.1517 376.077 31.3926 376.821 32.2788C377.566 33.1651 378.789 33.6083 380.491 33.6083C381.341 33.6083 382.325 33.4842 383.442 33.236C384.559 32.9879 385.844 32.5802 387.297 32.013C388.467 33.2183 389.194 34.8491 389.478 36.9053C386.641 38.9261 383.167 39.9364 379.055 39.9364C376.821 39.9364 374.951 39.5819 373.445 38.8729C371.938 38.1638 370.715 37.1712 369.775 35.8949C368.836 34.6187 368.171 33.112 367.781 31.3748C367.391 29.6377 367.196 27.741 367.196 25.6848C367.196 23.6995 367.435 21.8649 367.914 20.1809C368.393 18.497 369.119 17.0346 370.094 15.7938C371.069 14.553 372.31 13.578 373.817 12.869C375.323 12.16 377.087 11.8054 379.108 11.8054C380.81 11.8054 382.343 12.0891 383.708 12.6563C385.073 13.2235 386.234 14.0035 387.191 14.9961C388.148 15.9888 388.884 17.1764 389.398 18.559C389.912 19.9416 390.169 21.4483 390.169 23.0791C390.169 25.2417 389.938 27.0674 389.478 28.5564ZM375.545 22.8132H382.564V22.2283C382.564 20.9166 382.272 19.8353 381.687 18.9844C381.102 18.1336 380.225 17.7082 379.055 17.7082C377.92 17.7082 377.078 18.107 376.529 18.9047C375.979 19.7023 375.651 21.0052 375.545 22.8132ZM393.625 16.4319C393.803 15.7229 394.139 14.9341 394.636 14.0655C395.132 13.1969 395.628 12.5677 396.125 12.1777C399.386 12.4258 401.655 14.0389 402.932 17.0169C404.279 13.8262 406.494 12.2309 409.579 12.2309C410.5 12.2309 411.67 12.3727 413.088 12.6563C413.088 13.7553 412.902 15.0581 412.53 16.5648C412.158 18.0715 411.653 19.3567 411.015 20.4202C410.412 20.2075 409.508 20.0303 408.302 19.8885C406.53 19.8885 405.076 20.7925 403.942 22.6005V39.1388C402.772 39.3515 401.398 39.4578 399.821 39.4578C398.243 39.4578 396.852 39.3515 395.646 39.1388V21.9624C395.646 19.3035 394.973 17.46 393.625 16.4319ZM433.881 12.5499C434.094 13.5426 434.2 14.5352 434.2 15.5279C434.2 16.5205 434.094 17.4955 433.881 18.4527L427.553 18.3463V30.5772C427.553 32.2434 428.333 33.0765 429.893 33.0765H432.871C433.331 34.3528 433.562 35.5227 433.562 36.5862C433.562 37.6498 433.491 38.412 433.349 38.8729C430.726 39.2274 428.315 39.4047 426.117 39.4047C421.65 39.4047 419.417 36.9408 419.417 32.013V18.3995L415.269 18.4527C415.021 17.5664 414.896 16.6003 414.896 15.5545C414.896 14.5086 415.021 13.5071 415.269 12.5499L419.417 12.6563V9.57198C419.417 7.76394 419.762 6.47881 420.454 5.7166C421.145 4.95439 422.306 4.57328 423.937 4.57328H427.181L427.553 4.94552V12.6563L433.881 12.5499Z" fill="#111111"/>
</g>
<defs>
<clipPath id="clip0_0_3">
<rect width="434.2" height="50.6251" fill="white"/>
</clipPath>
</defs>
</svg>
