<svg width="378" height="308" viewBox="0 0 378 308" fill="none" xmlns="http://www.w3.org/2000/svg">
<path d="M237.204 160.73C266.758 131.176 266.758 83.2595 237.204 53.7057C207.65 24.1519 159.734 24.1519 130.18 53.7057C100.627 83.2595 100.627 131.176 130.18 160.73C159.734 190.283 207.651 190.283 237.204 160.73Z" fill="#EE9730"/>
<path d="M377.579 233.202L360.188 233.164L334.476 233.107L282.097 232.989C282.097 232.989 282.108 232.984 282.126 232.975L334.734 203.781L377.579 233.202Z" fill="#EDB188"/>
<path d="M377.579 233.202L360.188 233.164C355.049 223.354 340.014 217.81 335.826 215.078C330.6 211.664 334.734 203.781 334.734 203.781L377.579 233.202Z" fill="#EFBE97"/>
<path d="M334.476 233.108L282.097 232.99C282.097 232.99 282.108 232.985 282.126 232.976C282.808 232.668 295.801 226.892 305.788 229.027C314.628 230.916 329.834 229.647 334.476 233.108Z" fill="#E8A577"/>
<path d="M195.875 233.202L160.276 233.125L107.642 233.009L0.421021 232.767C0.421021 232.767 0.443019 232.757 0.480019 232.738L108.169 172.978L195.875 233.202Z" fill="#EDB188"/>
<path d="M195.875 233.202L160.276 233.125C149.757 213.043 118.979 201.694 110.406 196.102C99.7081 189.114 108.17 172.977 108.17 172.977L195.875 233.202Z" fill="#EFBE97"/>
<path d="M107.642 233.009L0.421021 232.767C0.421021 232.767 0.443019 232.757 0.480019 232.738C1.87702 232.108 28.472 220.284 48.916 224.655C67.014 228.521 98.141 225.924 107.642 233.009Z" fill="#E8A577"/>
<path d="M330.387 233.202L305.619 233.148L268.999 233.067L194.399 232.898C194.399 232.898 194.415 232.891 194.44 232.878L269.365 191.3L330.387 233.202Z" fill="#EFBE97"/>
<path d="M330.387 233.202L305.619 233.148C298.3 219.176 276.886 211.28 270.922 207.389C263.479 202.527 269.366 191.3 269.366 191.3L330.387 233.202Z" fill="#F5CDA9"/>
<path d="M268.998 233.068L194.398 232.899C194.398 232.899 194.414 232.892 194.439 232.879C195.411 232.441 213.915 224.214 228.139 227.255C240.731 229.946 262.387 228.138 268.998 233.068Z" fill="#EDB188"/>
<path d="M321.612 171.726C316.459 171.859 312.417 176.225 312.417 181.38V233.351H331.306V181.167C331.306 175.868 326.942 171.589 321.612 171.726Z" fill="#D3573B"/>
<path d="M321.862 171.723C318.901 171.723 316.5 175.951 316.5 181.167V233.351H327.224V181.167C327.224 175.951 324.823 171.723 321.862 171.723Z" fill="#F46640"/>
<path d="M321.862 171.723C320.752 171.723 319.852 175.951 319.852 181.167V233.351H323.872V181.167C323.872 175.951 322.972 171.723 321.862 171.723Z" fill="#F46640"/>
<path d="M318.003 178.769L316.77 179.851L316.52 177.531H316.518L316.268 179.853L315.033 178.769L316.188 180.59H316.189L316.517 181.107V181.103L316.519 181.107L316.85 180.59V180.586L318.003 178.769Z" fill="#F9A42D"/>
<path d="M328.691 178.769L327.458 179.851L327.208 177.531H327.206L326.956 179.853L325.72 178.769L326.876 180.59H326.877L327.204 181.107V181.103L327.207 181.107L327.538 180.59L327.537 180.586L328.691 178.769Z" fill="#F9A42D"/>
<path d="M323.347 182.345L322.114 183.427L321.864 181.107H321.862L321.612 183.429L320.377 182.345L321.532 184.165L321.533 184.166L321.861 184.682V184.679L321.863 184.682L322.194 184.165L322.193 184.162L323.347 182.345Z" fill="#F9A42D"/>
<path d="M323.347 191.249L322.114 192.331L321.864 190.011H321.862L321.612 192.333L320.377 191.249L321.532 193.07L321.533 193.071L321.861 193.587V193.583L321.863 193.587L322.194 193.07L322.193 193.066L323.347 191.249Z" fill="#F9A42D"/>
<path d="M323.347 200.154L322.114 201.236L321.864 198.916H321.862L321.612 201.238L320.377 200.154L321.532 201.974L321.533 201.975L321.861 202.492V202.488L321.863 202.492L322.194 201.974L322.193 201.971L323.347 200.154Z" fill="#F9A42D"/>
<path d="M318.003 187.033L316.77 188.115L316.52 185.795H316.518L316.268 188.117L315.033 187.033L316.188 188.854H316.189L316.517 189.371V189.367L316.519 189.371L316.85 188.854V188.85L318.003 187.033Z" fill="#F9A42D"/>
<path d="M328.691 187.033L327.458 188.115L327.208 185.795H327.206L326.956 188.117L325.72 187.033L326.876 188.854H326.877L327.204 189.371V189.367L327.207 189.371L327.538 188.854L327.537 188.85L328.691 187.033Z" fill="#F9A42D"/>
<path d="M318.003 195.297L316.77 196.379L316.52 194.059H316.518L316.268 196.381L315.033 195.297L316.188 197.117L316.189 197.118L316.517 197.635V197.631L316.519 197.635L316.85 197.117V197.114L318.003 195.297Z" fill="#F9A42D"/>
<path d="M328.691 195.297L327.458 196.379L327.208 194.059H327.206L326.956 196.381L325.72 195.297L326.876 197.117L326.877 197.118L327.204 197.635V197.631L327.207 197.635L327.538 197.117L327.537 197.114L328.691 195.297Z" fill="#F9A42D"/>
<path d="M304.536 185.914V182.579C304.536 180.443 302.937 178.529 300.804 178.417C298.529 178.298 296.648 180.107 296.648 182.355V188.747V190.106C296.648 193.712 299.571 196.635 303.177 196.635H304.536H313.224V188.747H307.37C305.805 188.747 304.536 187.479 304.536 185.914Z" fill="#D3573B"/>
<path d="M303.177 193.887C301.088 193.887 299.396 192.194 299.396 190.106V182.355C299.396 181.696 299.933 181.159 300.593 181.159C301.273 181.193 301.789 181.842 301.789 182.578V188.593C301.789 190.195 303.088 191.494 304.69 191.494H312.418V193.886L303.177 193.887Z" fill="#F46640"/>
<path d="M304.711 192.726L303.478 193.808L303.228 191.488H303.225L302.975 193.81L301.74 192.726L302.896 194.546V194.547L303.224 195.064V195.06L303.227 195.064L303.557 194.546V194.543L304.711 192.726Z" fill="#F9A42D"/>
<path d="M300.881 187.033L299.648 188.115L299.398 185.795H299.396L299.146 188.117L297.911 187.033L299.066 188.854H299.067L299.395 189.371V189.367L299.397 189.371L299.728 188.854L299.727 188.85L300.881 187.033Z" fill="#F9A42D"/>
<path d="M303.225 181.965L301.993 183.047L301.743 180.727H301.74L301.49 183.049L300.255 181.965L301.411 183.786L301.739 184.303V184.299L301.742 184.303L302.072 183.786V183.782L303.225 181.965Z" fill="#F9A42D"/>
<path d="M310.453 192.726L309.22 193.808L308.97 191.488H308.968L308.717 193.81L307.483 192.726L308.638 194.546L308.639 194.547L308.966 195.064V195.06L308.969 195.064L309.3 194.546L309.299 194.543L310.453 192.726Z" fill="#F9A42D"/>
<path d="M339.994 202.291V198.956C339.994 196.82 341.593 194.906 343.726 194.795C346.001 194.676 347.882 196.485 347.882 198.733V205.125V206.484C347.882 210.09 344.959 213.013 341.353 213.013H339.994H331.306V205.125H337.16C338.725 205.124 339.994 203.856 339.994 202.291Z" fill="#D3573B"/>
<path d="M341.353 210.264C343.441 210.264 345.134 208.571 345.134 206.483V198.732C345.134 198.073 344.597 197.536 343.937 197.536C343.257 197.57 342.741 198.219 342.741 198.955V204.97C342.741 206.572 341.442 207.871 339.84 207.871H331.306V210.264H341.353Z" fill="#F46640"/>
<path d="M339.82 209.103L341.052 210.185L341.302 207.865H341.305L341.555 210.187L342.79 209.103L341.634 210.924L341.306 211.441V211.437L341.303 211.441L340.973 210.924V210.92L339.82 209.103Z" fill="#F9A42D"/>
<path d="M343.649 203.41L344.882 204.492L345.132 202.172H345.134L345.384 204.494L346.62 203.41L345.464 205.231H345.463L345.136 205.748V205.744L345.133 205.748L344.802 205.231L344.803 205.227L343.649 203.41Z" fill="#F9A42D"/>
<path d="M341.305 198.342L342.538 199.424L342.788 197.104H342.79L343.04 199.426L344.275 198.342L343.119 200.163L342.791 200.68V200.676L342.789 200.68L342.458 200.163V200.16L341.305 198.342Z" fill="#F9A42D"/>
<path d="M334.077 209.103L335.31 210.185L335.56 207.865H335.563L335.813 210.187L337.048 209.103L335.892 210.924L335.564 211.441V211.437L335.561 211.441L335.231 210.924V210.92L334.077 209.103Z" fill="#F9A42D"/>
<path d="M318.003 204.714L316.77 205.796L316.52 203.476H316.518L316.268 205.798L315.033 204.714L316.188 206.535H316.189L316.517 207.052V207.048L316.519 207.052L316.85 206.535V206.531L318.003 204.714Z" fill="#F9A42D"/>
<path d="M328.691 204.714L327.458 205.796L327.208 203.476H327.206L326.956 205.798L325.72 204.714L326.876 206.535H326.877L327.204 207.052V207.048L327.207 207.052L327.538 206.535L327.537 206.531L328.691 204.714Z" fill="#F9A42D"/>
<path d="M323.347 208.29L322.114 209.372L321.864 207.052H321.862L321.612 209.374L320.377 208.29L321.532 210.11L321.533 210.111L321.861 210.628V210.624L321.863 210.628L322.194 210.11L322.193 210.107L323.347 208.29Z" fill="#F9A42D"/>
<path d="M323.347 217.194L322.114 218.277L321.864 215.956H321.862L321.612 218.278L320.377 217.194L321.532 219.015L321.533 219.016L321.861 219.532V219.528L321.863 219.532L322.194 219.015L322.193 219.012L323.347 217.194Z" fill="#F9A42D"/>
<path d="M323.347 226.099L322.114 227.181L321.864 224.861H321.862L321.612 227.183L320.377 226.099L321.532 227.919L321.533 227.92L321.861 228.437V228.433L321.863 228.437L322.194 227.919L322.193 227.916L323.347 226.099Z" fill="#F9A42D"/>
<path d="M318.003 212.978L316.77 214.06L316.52 211.74H316.518L316.268 214.062L315.033 212.978L316.188 214.799H316.189L316.517 215.316V215.312L316.519 215.316L316.85 214.799V214.795L318.003 212.978Z" fill="#F9A42D"/>
<path d="M328.691 212.978L327.458 214.06L327.208 211.74H327.206L326.956 214.062L325.72 212.978L326.876 214.799H326.877L327.204 215.316V215.312L327.207 215.316L327.538 214.799L327.537 214.795L328.691 212.978Z" fill="#F9A42D"/>
<path d="M318.003 221.242L316.77 222.324L316.52 220.004H316.518L316.268 222.326L315.033 221.242L316.188 223.063H316.189L316.517 223.58V223.576L316.519 223.58L316.85 223.063V223.059L318.003 221.242Z" fill="#F9A42D"/>
<path d="M328.691 221.242L327.458 222.324L327.208 220.004H327.206L326.956 222.326L325.72 221.242L326.876 223.063H326.877L327.204 223.58V223.576L327.207 223.58L327.538 223.063L327.537 223.059L328.691 221.242Z" fill="#F9A42D"/>
<path d="M322.699 168.515C322.699 168.515 322.884 165.535 321.862 163.576C320.84 165.535 321.025 168.515 321.025 168.515H322.699Z" fill="#3F1715"/>
<path d="M322.999 167.556C322.748 167.968 322.483 168.179 322.217 168.179H321.862H321.507C321.24 168.179 320.976 167.968 320.725 167.556L319.446 165.454L320.237 169.046C320.668 171.005 321.253 172.106 321.863 172.106C322.473 172.106 323.058 171.005 323.489 169.046L324.279 165.454L322.999 167.556Z" fill="#21120D"/>
<path d="M323.606 168.232C323.222 168.583 322.816 168.762 322.407 168.762H321.862H321.317C320.908 168.762 320.503 168.583 320.118 168.232L318.157 166.443L319.369 169.501C320.03 171.169 320.927 172.106 321.861 172.106C322.796 172.106 323.692 171.169 324.353 169.501L325.565 166.443L323.606 168.232Z" fill="#3F1715"/>
<path d="M324.417 168.883C323.854 169.175 323.259 169.324 322.66 169.324H321.862H321.064C320.465 169.324 319.87 169.175 319.307 168.883L316.434 167.394L318.209 169.938C319.178 171.326 320.491 172.106 321.861 172.106C323.231 172.106 324.545 171.326 325.513 169.938L327.289 167.394L324.417 168.883Z" fill="#21120D"/>
<path d="M300.788 176.922C300.788 176.922 300.905 175.027 300.256 173.781C299.606 175.026 299.723 176.922 299.723 176.922H300.788Z" fill="#3F1715"/>
<path d="M300.979 176.312C300.819 176.574 300.651 176.708 300.482 176.708H300.256H300.03C299.86 176.708 299.692 176.574 299.533 176.312L298.72 174.975L299.223 177.259C299.497 178.505 299.869 179.205 300.257 179.205C300.645 179.205 301.017 178.505 301.291 177.259L301.794 174.975L300.979 176.312Z" fill="#21120D"/>
<path d="M301.364 176.742C301.119 176.965 300.862 177.079 300.602 177.079H300.256H299.91C299.65 177.079 299.392 176.965 299.148 176.742L297.901 175.604L298.672 177.548C299.092 178.609 299.662 179.205 300.257 179.205C300.851 179.205 301.422 178.609 301.842 177.548L302.613 175.604L301.364 176.742Z" fill="#3F1715"/>
<path d="M301.88 177.156C301.522 177.342 301.144 177.437 300.763 177.437H300.255H299.748C299.367 177.437 298.989 177.342 298.631 177.156L296.804 176.209L297.933 177.827C298.549 178.71 299.384 179.205 300.255 179.205C301.126 179.205 301.961 178.709 302.577 177.827L303.706 176.209L301.88 177.156Z" fill="#21120D"/>
<path d="M344.593 192.478C344.593 192.478 344.745 190.023 343.903 188.41C343.061 190.023 343.213 192.478 343.213 192.478H344.593Z" fill="#3F1715"/>
<path d="M344.84 191.688C344.633 192.027 344.415 192.201 344.196 192.201H343.903H343.61C343.39 192.201 343.172 192.027 342.966 191.688L341.913 189.957L342.564 192.915C342.919 194.529 343.401 195.435 343.903 195.435C344.405 195.435 344.887 194.528 345.242 192.915L345.893 189.957L344.84 191.688Z" fill="#21120D"/>
<path d="M345.339 192.245C345.022 192.534 344.688 192.682 344.352 192.682H343.903H343.454C343.117 192.682 342.783 192.534 342.466 192.245L340.851 190.771L341.849 193.289C342.393 194.663 343.132 195.435 343.902 195.435C344.672 195.435 345.41 194.663 345.955 193.289L346.953 190.771L345.339 192.245Z" fill="#3F1715"/>
<path d="M346.007 192.781C345.543 193.021 345.054 193.144 344.56 193.144H343.903H343.246C342.753 193.144 342.263 193.021 341.799 192.781L339.433 191.555L340.895 193.651C341.693 194.794 342.775 195.436 343.903 195.436C345.031 195.436 346.113 194.794 346.911 193.651L348.373 191.555L346.007 192.781Z" fill="#21120D"/>
<path d="M216.615 138.41L187.312 130.051L183.694 149.481L194.091 155.339L197.284 171.029L197.373 196.024L201.035 215.987L187.568 213.686L187.106 218.514L184.835 237.104L187.568 240.542L215.061 227.371L225.113 194.526L227.15 172.678L216.615 138.41Z" fill="#421819"/>
<path d="M170.562 171.029L173.72 196.024L176.424 214.529L185.634 218.899L189.035 238.045L163.703 223.948L150.972 194.526L150.849 172.678L160.075 140.018L184.77 131.712L187.055 148.607L181.104 155.468L170.562 171.029Z" fill="#612423"/>
<path d="M126.493 196.723L141.725 195.2L145.362 215.611L129.941 212.954L132.97 237.292L109.01 233.677L107.144 213.913L67.3831 212.605L67.8141 199.673L82.1691 178.232L93.2111 154.091L106.664 131.452L107.285 132.089L132.046 131.138L135.243 163.646L126.493 196.723ZM81.9761 195.498L107.46 195.209L103.315 163.018L105.585 161.788L106.834 167.164L81.9761 195.498Z" fill="#421819"/>
<path d="M143.007 193.478L140.139 210.085L104.46 213.377L65.956 216.436L64.993 198.725L78.144 175.662L90.165 152.062L107.949 130.59L105.755 162.473L85.7941 195.417L114.64 198.992L143.007 193.478Z" fill="#612423"/>
<path d="M294.138 196.723L309.37 195.2L313.007 215.611L297.585 212.954L300.614 237.292L276.654 233.677L274.788 213.913L235.027 212.605L235.458 199.673L249.813 178.232L260.855 154.091L274.308 131.452L274.929 132.089L299.69 131.138L302.887 163.646L294.138 196.723ZM249.621 195.498L275.105 195.209L270.96 163.018L273.23 161.788L274.479 167.164L249.621 195.498Z" fill="#421819"/>
<path d="M310.652 193.478L307.783 210.085L272.104 213.377L233.601 216.436L232.638 198.725L245.788 175.662L257.809 152.062L275.593 130.59L273.399 162.473L253.439 195.417L282.285 198.992L310.652 193.478Z" fill="#612423"/>
<path d="M53.709 132.723C47.311 132.888 42.294 138.308 42.294 144.708V244.884H65.744V144.444C65.744 137.866 60.326 132.553 53.709 132.723Z" fill="#D3573B"/>
<path d="M54.019 132.719C50.342 132.719 47.362 137.968 47.362 144.444V244.884H60.676V144.444C60.676 137.969 57.695 132.719 54.019 132.719Z" fill="#F46640"/>
<path d="M54.019 132.719C52.641 132.719 51.524 137.968 51.524 144.444V244.884H56.515V144.444C56.514 137.969 55.397 132.719 54.019 132.719Z" fill="#F46640"/>
<path d="M49.228 141.467L47.698 142.81L47.387 139.93H47.385L47.074 142.813L45.541 141.467L46.976 143.727V143.728L47.383 144.369V144.364L47.386 144.369L47.797 143.727L47.796 143.723L49.228 141.467Z" fill="#F9A42D"/>
<path d="M62.497 141.467L60.966 142.81L60.656 139.93H60.653L60.343 142.813L58.809 141.467L60.244 143.727L60.245 143.728L60.652 144.369V144.364L60.655 144.369L61.065 143.727V143.723L62.497 141.467Z" fill="#F9A42D"/>
<path d="M55.863 145.906L54.332 147.249L54.022 144.369H54.019L53.708 147.252L52.175 145.906L53.61 148.166V148.167L54.017 148.808V148.803L54.02 148.808L54.431 148.166V148.162L55.863 145.906Z" fill="#F9A42D"/>
<path d="M55.863 156.961L54.332 158.304L54.022 155.424H54.019L53.708 158.307L52.175 156.961L53.61 159.221V159.222L54.017 159.863V159.858L54.02 159.863L54.431 159.221V159.217L55.863 156.961Z" fill="#F9A42D"/>
<path d="M55.863 168.016L54.332 169.359L54.022 166.479H54.019L53.708 169.362L52.175 168.016L53.61 170.276V170.277L54.017 170.918V170.913L54.02 170.918L54.431 170.276V170.272L55.863 168.016Z" fill="#F9A42D"/>
<path d="M49.228 151.727L47.698 153.07L47.387 150.189H47.385L47.074 153.072L45.541 151.727L46.976 153.987V153.988L47.383 154.629V154.624L47.386 154.629L47.797 153.987L47.796 153.982L49.228 151.727Z" fill="#F9A42D"/>
<path d="M62.497 151.727L60.966 153.07L60.656 150.189H60.653L60.343 153.072L58.809 151.727L60.244 153.987L60.245 153.988L60.652 154.629V154.624L60.655 154.629L61.065 153.987V153.982L62.497 151.727Z" fill="#F9A42D"/>
<path d="M49.228 161.986L47.698 163.329L47.387 160.449H47.385L47.074 163.332L45.541 161.986L46.976 164.246V164.247L47.383 164.888V164.883L47.386 164.888L47.797 164.246L47.796 164.242L49.228 161.986Z" fill="#F9A42D"/>
<path d="M62.497 161.986L60.966 163.329L60.656 160.449H60.653L60.343 163.332L58.809 161.986L60.244 164.246L60.245 164.247L60.652 164.888V164.883L60.655 164.888L61.065 164.246V164.242L62.497 161.986Z" fill="#F9A42D"/>
<path d="M32.509 150.337V146.196C32.509 143.545 30.524 141.168 27.876 141.03C25.052 140.882 22.716 143.128 22.716 145.919V153.855V155.542C22.716 160.019 26.345 163.648 30.822 163.648H32.509H43.295V153.856H36.027C34.084 153.854 32.509 152.279 32.509 150.337Z" fill="#D3573B"/>
<path d="M30.822 160.236C28.229 160.236 26.127 158.134 26.127 155.541V145.919C26.127 145.101 26.793 144.434 27.613 144.434C28.457 144.476 29.098 145.282 29.098 146.196V153.663C29.098 155.652 30.711 157.265 32.7 157.265H42.294V160.235L30.822 160.236Z" fill="#F46640"/>
<path d="M32.726 158.794L31.195 160.138L30.885 157.257H30.882L30.572 160.14L29.038 158.794L30.473 161.054L30.474 161.055L30.881 161.696V161.692L30.884 161.696L31.294 161.054V161.05L32.726 158.794Z" fill="#F9A42D"/>
<path d="M27.972 151.727L26.441 153.07L26.131 150.189H26.128L25.817 153.072L24.284 151.727L25.719 153.987V153.988L26.126 154.629V154.624L26.129 154.629L26.54 153.987L26.539 153.982L27.972 151.727Z" fill="#F9A42D"/>
<path d="M30.882 145.435L29.352 146.778L29.041 143.898H29.039L28.728 146.78L27.195 145.435L28.629 147.695L28.63 147.696L29.037 148.337V148.332L29.04 148.337L29.451 147.695L29.45 147.691L30.882 145.435Z" fill="#F9A42D"/>
<path d="M39.855 158.794L38.324 160.138L38.014 157.257H38.011L37.701 160.14L36.167 158.794L37.602 161.054V161.055L38.009 161.696V161.692L38.012 161.696L38.423 161.054V161.05L39.855 158.794Z" fill="#F9A42D"/>
<path d="M76.53 205.09V200.949C76.53 198.298 78.516 195.921 81.163 195.783C83.987 195.635 86.323 197.881 86.323 200.672V208.608V210.295C86.323 214.772 82.694 218.401 78.217 218.401H76.53H65.744V208.608H73.012C74.955 208.608 76.53 207.033 76.53 205.09Z" fill="#D3573B"/>
<path d="M78.217 214.989C80.81 214.989 82.912 212.887 82.912 210.294V200.672C82.912 199.854 82.246 199.187 81.426 199.187C80.582 199.229 79.941 200.035 79.941 200.949V208.416C79.941 210.405 78.328 212.018 76.339 212.018H65.744V214.988L78.217 214.989Z" fill="#F46640"/>
<path d="M76.313 213.547L77.844 214.891L78.154 212.01H78.157L78.467 214.893L80.001 213.547L78.566 215.808L78.159 216.449V216.445L78.156 216.449L77.745 215.808V215.803L76.313 213.547Z" fill="#F9A42D"/>
<path d="M81.068 206.48L82.598 207.823L82.908 204.943H82.911L83.222 207.825L84.755 206.48L83.32 208.74V208.741L82.913 209.382V209.377L82.91 209.382L82.499 208.74L82.5 208.736L81.068 206.48Z" fill="#F9A42D"/>
<path d="M78.157 200.188L79.688 201.531L79.998 198.651H80.001L80.311 201.534L81.844 200.188L80.41 202.448L80.409 202.449L80.002 203.09V203.085L79.999 203.09L79.589 202.448V202.444L78.157 200.188Z" fill="#F9A42D"/>
<path d="M69.184 213.547L70.715 214.891L71.025 212.01H71.028L71.339 214.893L72.872 213.547L71.437 215.808L71.03 216.449V216.445L71.027 216.449L70.616 215.808L70.617 215.803L69.184 213.547Z" fill="#F9A42D"/>
<path d="M49.228 173.677L47.698 175.021L47.387 172.14H47.385L47.074 175.023L45.541 173.677L46.976 175.938V175.939L47.383 176.58V176.575L47.386 176.58L47.797 175.938L47.796 175.934L49.228 173.677Z" fill="#F9A42D"/>
<path d="M62.497 173.677L60.966 175.021L60.656 172.14H60.653L60.343 175.023L58.809 173.677L60.244 175.938L60.245 175.939L60.652 176.58V176.575L60.655 176.58L61.065 175.938V175.934L62.497 173.677Z" fill="#F9A42D"/>
<path d="M55.863 178.117L54.332 179.46L54.022 176.58H54.019L53.708 179.462L52.175 178.117L53.61 180.377V180.378L54.017 181.019V181.014L54.02 181.019L54.431 180.377V180.373L55.863 178.117Z" fill="#F9A42D"/>
<path d="M55.863 189.171L54.332 190.515L54.022 187.634H54.019L53.708 190.517L52.175 189.171L53.61 191.432L54.017 192.074V192.069L54.02 192.074L54.431 191.432V191.428L55.863 189.171Z" fill="#F9A42D"/>
<path d="M55.863 200.226L54.332 201.57L54.022 198.689H54.019L53.708 201.572L52.175 200.226L53.61 202.486V202.487L54.017 203.129V203.124L54.02 203.129L54.431 202.486V202.482L55.863 200.226Z" fill="#F9A42D"/>
<path d="M49.228 183.937L47.698 185.28L47.387 182.4H47.385L47.074 185.283L45.541 183.937L46.976 186.197V186.198L47.383 186.839V186.834L47.386 186.839L47.797 186.197L47.796 186.193L49.228 183.937Z" fill="#F9A42D"/>
<path d="M62.497 183.937L60.966 185.28L60.656 182.4H60.653L60.343 185.283L58.809 183.937L60.244 186.197L60.245 186.198L60.652 186.839V186.834L60.655 186.839L61.065 186.197V186.193L62.497 183.937Z" fill="#F9A42D"/>
<path d="M49.228 194.197L47.698 195.54L47.387 192.66H47.385L47.074 195.542L45.541 194.197L46.976 196.457V196.458L47.383 197.099V197.094L47.386 197.099L47.797 196.457L47.796 196.453L49.228 194.197Z" fill="#F9A42D"/>
<path d="M62.497 194.197L60.966 195.54L60.656 192.66H60.653L60.343 195.542L58.809 194.197L60.244 196.457L60.245 196.458L60.652 197.099V197.094L60.655 197.099L61.065 196.457V196.453L62.497 194.197Z" fill="#F9A42D"/>
<path d="M49.228 206.52L47.698 207.863L47.387 204.983H47.385L47.074 207.866L45.541 206.52L46.976 208.78V208.781L47.383 209.422V209.417L47.386 209.422L47.797 208.78L47.796 208.776L49.228 206.52Z" fill="#F9A42D"/>
<path d="M62.497 206.52L60.966 207.863L60.656 204.983H60.653L60.343 207.866L58.809 206.52L60.244 208.78L60.245 208.781L60.652 209.422V209.417L60.655 209.422L61.065 208.78V208.776L62.497 206.52Z" fill="#F9A42D"/>
<path d="M55.863 210.959L54.332 212.302L54.022 209.422H54.019L53.708 212.305L52.175 210.959L53.61 213.219V213.22L54.017 213.861V213.856L54.02 213.861L54.431 213.219V213.215L55.863 210.959Z" fill="#F9A42D"/>
<path d="M55.863 222.014L54.332 223.357L54.022 220.477H54.019L53.708 223.36L52.175 222.014L53.61 224.274V224.275L54.017 224.916V224.911L54.02 224.916L54.431 224.274V224.27L55.863 222.014Z" fill="#F9A42D"/>
<path d="M55.863 233.069L54.332 234.412L54.022 231.532H54.019L53.708 234.415L52.175 233.069L53.61 235.329V235.33L54.017 235.971V235.966L54.02 235.971L54.431 235.329V235.325L55.863 233.069Z" fill="#F9A42D"/>
<path d="M49.228 216.779L47.698 218.123L47.387 215.242H47.385L47.074 218.125L45.541 216.779L46.976 219.04V219.041L47.383 219.682V219.677L47.386 219.682L47.797 219.04L47.796 219.036L49.228 216.779Z" fill="#F9A42D"/>
<path d="M62.497 216.779L60.966 218.123L60.656 215.242H60.653L60.343 218.125L58.809 216.779L60.244 219.04L60.245 219.041L60.652 219.682V219.677L60.655 219.682L61.065 219.04V219.036L62.497 216.779Z" fill="#F9A42D"/>
<path d="M49.228 227.039L47.698 228.382L47.387 225.502H47.385L47.074 228.385L45.541 227.039L46.976 229.299V229.3L47.383 229.941V229.936L47.386 229.941L47.797 229.299L47.796 229.295L49.228 227.039Z" fill="#F9A42D"/>
<path d="M62.497 227.039L60.966 228.382L60.656 225.502H60.653L60.343 228.385L58.809 227.039L60.244 229.299L60.245 229.3L60.652 229.941V229.936L60.655 229.941L61.065 229.299V229.295L62.497 227.039Z" fill="#F9A42D"/>
<path d="M55.059 128.737C55.059 128.737 55.288 125.037 54.019 122.605C52.75 125.037 52.979 128.737 52.979 128.737H55.059Z" fill="#3F1715"/>
<path d="M55.431 127.546C55.12 128.058 54.791 128.319 54.46 128.319H54.019H53.578C53.247 128.319 52.918 128.057 52.607 127.546L51.019 124.937L52 129.396C52.535 131.828 53.262 133.195 54.019 133.195C54.776 133.195 55.502 131.828 56.038 129.396L57.02 124.937L55.431 127.546Z" fill="#21120D"/>
<path d="M56.184 128.386C55.707 128.822 55.203 129.044 54.695 129.044H54.019H53.343C52.835 129.044 52.332 128.821 51.855 128.386L49.421 126.164L50.925 129.96C51.746 132.031 52.859 133.194 54.019 133.194C55.179 133.194 56.293 132.03 57.113 129.96L58.617 126.164L56.184 128.386Z" fill="#3F1715"/>
<path d="M57.191 129.193C56.492 129.556 55.754 129.741 55.01 129.741H54.019H53.028C52.284 129.741 51.546 129.556 50.847 129.193L47.281 127.345L49.485 130.504C50.688 132.227 52.318 133.195 54.019 133.195C55.72 133.195 57.351 132.227 58.553 130.504L60.757 127.345L57.191 129.193Z" fill="#21120D"/>
<path d="M27.8561 139.174C27.8561 139.174 28.0021 136.821 27.1951 135.275C26.3881 136.821 26.534 139.174 26.534 139.174H27.8561Z" fill="#3F1715"/>
<path d="M28.093 138.417C27.895 138.742 27.686 138.909 27.476 138.909H27.195H26.914C26.703 138.909 26.494 138.743 26.296 138.417L25.286 136.758L25.91 139.593C26.25 141.14 26.712 142.009 27.194 142.009C27.676 142.009 28.137 141.14 28.478 139.593L29.102 136.758L28.093 138.417Z" fill="#21120D"/>
<path d="M28.571 138.951C28.267 139.228 27.947 139.37 27.624 139.37H27.194H26.764C26.441 139.37 26.121 139.228 25.818 138.951L24.27 137.538L25.227 139.952C25.749 141.269 26.457 142.009 27.195 142.009C27.933 142.009 28.641 141.269 29.163 139.952L30.12 137.538L28.571 138.951Z" fill="#3F1715"/>
<path d="M29.212 139.464C28.767 139.694 28.298 139.812 27.825 139.812H27.195H26.565C26.092 139.812 25.623 139.694 25.178 139.464L22.91 138.289L24.312 140.297C25.077 141.393 26.114 142.008 27.195 142.008C28.276 142.008 29.313 141.392 30.078 140.297L31.48 138.289L29.212 139.464Z" fill="#21120D"/>
<path d="M82.239 192.907C82.239 192.907 82.428 189.859 81.383 187.857C80.338 189.86 80.527 192.907 80.527 192.907H82.239Z" fill="#3F1715"/>
<path d="M82.546 191.927C82.29 192.348 82.019 192.564 81.746 192.564H81.382H81.019C80.746 192.564 80.476 192.349 80.219 191.927L78.911 189.778L79.719 193.45C80.16 195.453 80.758 196.579 81.382 196.579C82.006 196.579 82.604 195.454 83.045 193.45L83.853 189.778L82.546 191.927Z" fill="#21120D"/>
<path d="M83.166 192.618C82.773 192.977 82.358 193.16 81.94 193.16H81.383H80.826C80.408 193.16 79.993 192.976 79.6 192.618L77.595 190.788L78.834 193.915C79.51 195.621 80.427 196.579 81.382 196.579C82.338 196.579 83.255 195.621 83.931 193.915L85.17 190.788L83.166 192.618Z" fill="#3F1715"/>
<path d="M83.995 193.283C83.419 193.582 82.811 193.734 82.199 193.734H81.383H80.567C79.954 193.734 79.347 193.581 78.771 193.283L75.834 191.761L77.65 194.363C78.64 195.782 79.984 196.579 81.384 196.579C82.785 196.579 84.128 195.782 85.118 194.363L86.933 191.761L83.995 193.283Z" fill="#21120D"/>
<path d="M364.721 231.533C364.043 231.533 352.558 249.098 351.388 250.774C345.509 259.197 333.785 260.515 324.786 265.468C317.929 269.242 312.554 275.279 308.297 281.846C302.676 290.518 298.088 300.937 288.677 305.208C281.13 308.633 272.197 307.112 264.561 303.892C251.828 298.523 242.541 292.218 228.523 290.414C215.106 288.687 201.195 290.528 188.767 295.902C176.333 301.279 163.505 310.226 150.531 306.363C134.097 301.463 127.408 278.321 110.469 275.706C98.265 273.816 87.254 283.836 74.94 284.735C62.956 285.616 52.009 277.669 44.366 268.402C36.722 259.134 31.153 248.215 22.876 239.507C19.875 236.36 16.673 233.772 13.278 231.533C13.276 231.533 363.174 231.533 364.721 231.533Z" fill="#EE9730"/>
<path d="M364.724 231.532C364.046 231.532 352.557 249.096 351.386 250.778C345.512 259.196 333.789 260.518 324.785 265.472C317.932 269.246 312.551 275.279 308.301 281.848C302.678 290.517 298.092 300.935 288.679 305.211C281.131 308.633 272.203 307.11 264.563 303.889C251.827 298.525 242.539 292.216 228.523 290.417C215.109 288.685 201.194 290.526 188.768 295.906C176.333 301.278 163.506 310.232 150.536 306.366C134.102 301.462 127.407 278.326 110.471 275.706C98.271 273.815 87.259 283.84 74.941 284.735C62.958 285.614 52.013 277.673 44.365 268.401C36.725 259.138 31.152 248.218 22.877 239.507C19.873 236.361 16.676 233.775 13.279 231.533C13.279 231.533 22.718 231.533 38.499 231.533C40.365 234.219 42.29 236.863 44.365 239.382C52.013 248.645 62.958 256.594 74.941 255.716C87.258 254.812 98.27 244.796 110.471 246.679C127.407 249.298 134.102 272.443 150.536 277.339C163.506 281.205 176.334 272.26 188.768 266.879C201.194 261.507 215.11 259.666 228.523 261.39C242.539 263.197 251.827 269.498 264.563 274.87C272.203 278.091 281.131 279.606 288.679 276.184C298.093 271.916 302.678 261.498 308.301 252.821C312.552 246.252 317.932 240.219 324.785 236.445C328.408 234.454 332.458 233.056 336.408 231.533L364.724 231.532Z" fill="#F9A42D"/>
<path d="M194.257 72.813H266.22C265.946 65.87 260.235 60.333 253.228 60.333H253.225C250.347 53.834 243.849 49.297 236.285 49.297C227.194 49.297 219.639 55.849 218.069 64.485C217.742 64.449 217.41 64.426 217.072 64.426C214.141 64.426 211.54 65.845 209.917 68.03C209.361 67.893 208.78 67.818 208.182 67.818C206.061 67.818 204.159 68.732 202.837 70.185C201.954 69.724 200.948 69.461 199.884 69.461C197.453 69.461 195.338 70.816 194.257 72.813Z" fill="#FAFBED"/>
<path d="M281.857 73.824H185.302C184.946 73.824 184.657 73.535 184.657 73.179C184.657 72.823 184.946 72.534 185.302 72.534H281.857C282.213 72.534 282.502 72.823 282.502 73.179C282.503 73.535 282.214 73.824 281.857 73.824Z" fill="#FAFBED"/>
<path d="M210.647 77.456H175.244C174.888 77.456 174.599 77.167 174.599 76.811C174.599 76.455 174.888 76.166 175.244 76.166H210.647C211.003 76.166 211.292 76.455 211.292 76.811C211.292 77.168 211.004 77.456 210.647 77.456Z" fill="#FAFBED"/>
<path d="M252.07 77.456H232.627C232.271 77.456 231.982 77.167 231.982 76.811C231.982 76.455 232.271 76.166 232.627 76.166H252.07C252.426 76.166 252.715 76.455 252.715 76.811C252.715 77.168 252.426 77.456 252.07 77.456Z" fill="#FAFBED"/>
<path d="M159.501 109.696H98.87C99.101 103.846 103.912 99.181 109.816 99.181H109.818C112.243 93.706 117.718 89.883 124.09 89.883C131.75 89.883 138.115 95.403 139.438 102.679C139.713 102.648 139.994 102.63 140.278 102.63C142.747 102.63 144.939 103.826 146.307 105.667C146.775 105.552 147.265 105.488 147.769 105.488C149.556 105.488 151.159 106.258 152.272 107.482C153.016 107.094 153.863 106.872 154.76 106.872C156.809 106.871 158.591 108.013 159.501 109.696Z" fill="#FAFBED"/>
<path d="M85.696 110.548H167.046C167.346 110.548 167.59 110.305 167.59 110.004C167.59 109.704 167.347 109.46 167.046 109.46H85.696C85.396 109.46 85.152 109.703 85.152 110.004C85.152 110.305 85.396 110.548 85.696 110.548Z" fill="#FAFBED"/>
<path d="M145.692 113.608H175.52C175.82 113.608 176.064 113.365 176.064 113.064C176.064 112.764 175.821 112.52 175.52 112.52H145.692C145.392 112.52 145.148 112.763 145.148 113.064C145.149 113.365 145.392 113.608 145.692 113.608Z" fill="#FAFBED"/>
<path d="M110.792 113.608H127.173C127.473 113.608 127.717 113.365 127.717 113.064C127.717 112.764 127.474 112.52 127.173 112.52H110.792C110.492 112.52 110.248 112.763 110.248 113.064C110.249 113.365 110.492 113.608 110.792 113.608Z" fill="#FAFBED"/>
</svg>
